<?xml version="1.0" encoding="UTF-8" standalone="no"?>
<!DOCTYPE svg PUBLIC "-//W3C//DTD SVG 1.1//EN"
 "http://www.w3.org/Graphics/SVG/1.1/DTD/svg11.dtd">
<!-- Generated by graphviz version 12.1.2 (0)
 -->
<!-- Pages: 1 -->
<svg width="339pt" height="142pt"
 viewBox="0.00 0.00 339.33 141.66" xmlns="http://www.w3.org/2000/svg" xmlns:xlink="http://www.w3.org/1999/xlink">
<g id="graph0" class="graph" transform="scale(1 1) rotate(0) translate(4 137.66)">
<polygon fill="white" stroke="none" points="-4,4 -4,-137.66 335.33,-137.66 335.33,4 -4,4"/>
<!-- I0 -->
<g id="node1" class="node">
<title>I0</title>
<polygon fill="none" stroke="black" points="54,-116.83 0,-116.83 0,-80.83 54,-80.83 54,-116.83"/>
<text text-anchor="middle" x="27" y="-93.78" font-family="Times,serif" font-size="14.00">x</text>
</g>
<!-- and1 -->
<g id="node2" class="node">
<title>and1</title>
<ellipse fill="none" stroke="black" cx="118.83" cy="-104.83" rx="28.83" ry="28.83"/>
<text text-anchor="middle" x="118.83" y="-99.78" font-family="Times,serif" font-size="14.00">and1</text>
</g>
<!-- I0&#45;&gt;and1 -->
<g id="edge1" class="edge">
<title>I0&#45;&gt;and1</title>
<path fill="none" stroke="black" stroke-dasharray="5,2" d="M54.47,-100.6C61.91,-101.1 70.17,-101.65 78.2,-102.18"/>
<polygon fill="black" stroke="black" points="77.96,-105.68 88.17,-102.85 78.42,-98.69 77.96,-105.68"/>
</g>
<!-- and2 -->
<g id="node3" class="node">
<title>and2</title>
<ellipse fill="none" stroke="black" cx="118.83" cy="-28.83" rx="28.83" ry="28.83"/>
<text text-anchor="middle" x="118.83" y="-23.78" font-family="Times,serif" font-size="14.00">and2</text>
</g>
<!-- I0&#45;&gt;and2 -->
<g id="edge2" class="edge">
<title>I0&#45;&gt;and2</title>
<path fill="none" stroke="black" d="M51.6,-80.44C62.35,-72.07 75.22,-62.04 86.74,-53.06"/>
<polygon fill="black" stroke="black" points="88.69,-55.98 94.43,-47.07 84.39,-50.45 88.69,-55.98"/>
</g>
<!-- and3 -->
<g id="node6" class="node">
<title>and3</title>
<ellipse fill="none" stroke="black" cx="212.5" cy="-66.83" rx="28.83" ry="28.83"/>
<text text-anchor="middle" x="212.5" y="-61.78" font-family="Times,serif" font-size="14.00">and3</text>
</g>
<!-- and1&#45;&gt;and3 -->
<g id="edge5" class="edge">
<title>and1&#45;&gt;and3</title>
<path fill="none" stroke="black" stroke-dasharray="5,2" d="M145.85,-94.04C154.85,-90.31 165.11,-86.06 174.81,-82.04"/>
<polygon fill="black" stroke="black" points="176.11,-85.29 184.01,-78.23 173.43,-78.82 176.11,-85.29"/>
</g>
<!-- and2&#45;&gt;and3 -->
<g id="edge6" class="edge">
<title>and2&#45;&gt;and3</title>
<path fill="none" stroke="black" stroke-dasharray="5,2" d="M145.85,-39.62C154.85,-43.35 165.11,-47.6 174.81,-51.62"/>
<polygon fill="black" stroke="black" points="173.43,-54.84 184.01,-55.44 176.11,-48.37 173.43,-54.84"/>
</g>
<!-- I1 -->
<g id="node4" class="node">
<title>I1</title>
<polygon fill="none" stroke="black" points="54,-57.83 0,-57.83 0,-21.83 54,-21.83 54,-57.83"/>
<text text-anchor="middle" x="27" y="-34.78" font-family="Times,serif" font-size="14.00">y</text>
</g>
<!-- I1&#45;&gt;and1 -->
<g id="edge3" class="edge">
<title>I1&#45;&gt;and1</title>
<path fill="none" stroke="black" stroke-dasharray="5,2" d="M53.5,-58.28C63.61,-65.6 75.35,-74.09 86,-81.8"/>
<polygon fill="black" stroke="black" points="83.65,-84.42 93.8,-87.44 87.75,-78.74 83.65,-84.42"/>
</g>
<!-- I1&#45;&gt;and2 -->
<g id="edge4" class="edge">
<title>I1&#45;&gt;and2</title>
<path fill="none" stroke="black" d="M54.47,-36.59C62.06,-35.66 70.52,-34.63 78.71,-33.62"/>
<polygon fill="black" stroke="black" points="78.99,-37.11 88.49,-32.42 78.14,-30.17 78.99,-37.11"/>
</g>
<!-- O0 -->
<g id="node5" class="node">
<title>O0</title>
<polygon fill="none" stroke="black" points="331.33,-84.83 277.33,-84.83 277.33,-48.83 331.33,-48.83 331.33,-84.83"/>
<text text-anchor="middle" x="304.33" y="-61.78" font-family="Times,serif" font-size="14.00">z</text>
</g>
<!-- and3&#45;&gt;O0 -->
<g id="edge7" class="edge">
<title>and3&#45;&gt;O0</title>
<path fill="none" stroke="black" d="M241.43,-66.83C249.04,-66.83 257.42,-66.83 265.48,-66.83"/>
<polygon fill="black" stroke="black" points="265.43,-70.33 275.43,-66.83 265.43,-63.33 265.43,-70.33"/>
</g>
</g>
</svg>
