<?xml version="1.0" encoding="UTF-8" standalone="no"?>
<!DOCTYPE svg PUBLIC "-//W3C//DTD SVG 1.1//EN"
 "http://www.w3.org/Graphics/SVG/1.1/DTD/svg11.dtd">
<!-- Generated by graphviz version 12.1.2 (0)
 -->
<!-- Title: xor.aig Pages: 1 -->
<svg width="150pt" height="358pt"
 viewBox="0.00 0.00 150.10 358.00" xmlns="http://www.w3.org/2000/svg" xmlns:xlink="http://www.w3.org/1999/xlink">
<g id="graph0" class="graph" transform="scale(1 1) rotate(0) translate(4 354)">
<title>xor.aig</title>
<polygon fill="white" stroke="none" points="-4,4 -4,-354 146.1,-354 146.1,4 -4,4"/>
<!-- 2 -->
<g id="node1" class="node">
<title>2</title>
<polygon fill="none" stroke="black" points="62.05,-121 8.05,-121 8.05,-85 62.05,-85 62.05,-121"/>
<text text-anchor="middle" x="35.05" y="-97.95" font-family="Times,serif" font-size="14.00">2</text>
</g>
<!-- I0 -->
<g id="node2" class="node">
<title>I0</title>
<polygon fill="none" stroke="blue" points="31.05,-49 0,-12.25 62.1,-12.25 31.05,-49"/>
<text text-anchor="middle" x="31.05" y="-19.45" font-family="Times,serif" font-size="14.00">x</text>
</g>
<!-- 2&#45;&gt;I0 -->
<g id="edge1" class="edge">
<title>2&#45;&gt;I0</title>
<path fill="none" stroke="black" d="M34.14,-84.64C33.58,-73.88 32.85,-59.95 32.24,-48.31"/>
</g>
<!-- 4 -->
<g id="node3" class="node">
<title>4</title>
<polygon fill="none" stroke="black" points="134.05,-121 80.05,-121 80.05,-85 134.05,-85 134.05,-121"/>
<text text-anchor="middle" x="107.05" y="-97.95" font-family="Times,serif" font-size="14.00">4</text>
</g>
<!-- I1 -->
<g id="node4" class="node">
<title>I1</title>
<polygon fill="none" stroke="blue" points="111.05,-49 80,-12.25 142.1,-12.25 111.05,-49"/>
<text text-anchor="middle" x="111.05" y="-19.45" font-family="Times,serif" font-size="14.00">y</text>
</g>
<!-- 4&#45;&gt;I1 -->
<g id="edge2" class="edge">
<title>4&#45;&gt;I1</title>
<path fill="none" stroke="black" d="M107.96,-84.64C108.52,-73.88 109.25,-59.95 109.86,-48.31"/>
</g>
<!-- 6 -->
<g id="node5" class="node">
<title>6</title>
<ellipse fill="none" stroke="black" cx="35.05" cy="-175" rx="27" ry="18"/>
<text text-anchor="middle" x="35.05" y="-169.95" font-family="Times,serif" font-size="14.00">6</text>
</g>
<!-- 6&#45;&gt;2 -->
<g id="edge4" class="edge">
<title>6&#45;&gt;2</title>
<path fill="none" stroke="black" d="M35.05,-156.7C35.05,-148.64 35.05,-138.89 35.05,-129.98"/>
<ellipse fill="black" stroke="black" cx="35.05" cy="-125.6" rx="4" ry="4"/>
</g>
<!-- 6&#45;&gt;4 -->
<g id="edge3" class="edge">
<title>6&#45;&gt;4</title>
<path fill="none" stroke="black" d="M49.97,-159.5C59.47,-150.26 72,-138.08 82.9,-127.48"/>
<ellipse fill="black" stroke="black" cx="85.87" cy="-124.59" rx="4" ry="4"/>
</g>
<!-- 8 -->
<g id="node6" class="node">
<title>8</title>
<ellipse fill="none" stroke="black" cx="107.05" cy="-175" rx="27" ry="18"/>
<text text-anchor="middle" x="107.05" y="-169.95" font-family="Times,serif" font-size="14.00">8</text>
</g>
<!-- 8&#45;&gt;2 -->
<g id="edge6" class="edge">
<title>8&#45;&gt;2</title>
<path fill="none" stroke="black" d="M92.13,-159.5C80.76,-148.44 65.06,-133.18 53.01,-121.46"/>
</g>
<!-- 8&#45;&gt;4 -->
<g id="edge5" class="edge">
<title>8&#45;&gt;4</title>
<path fill="none" stroke="black" d="M107.05,-156.7C107.05,-145.85 107.05,-131.92 107.05,-121.1"/>
</g>
<!-- 10 -->
<g id="node7" class="node">
<title>10</title>
<ellipse fill="none" stroke="black" cx="71.05" cy="-247" rx="27" ry="18"/>
<text text-anchor="middle" x="71.05" y="-241.95" font-family="Times,serif" font-size="14.00">10</text>
</g>
<!-- 10&#45;&gt;6 -->
<g id="edge8" class="edge">
<title>10&#45;&gt;6</title>
<path fill="none" stroke="black" d="M62.7,-229.76C58.16,-220.93 52.45,-209.83 47.4,-200.01"/>
<ellipse fill="black" stroke="black" cx="45.41" cy="-196.15" rx="4" ry="4"/>
</g>
<!-- 10&#45;&gt;8 -->
<g id="edge7" class="edge">
<title>10&#45;&gt;8</title>
<path fill="none" stroke="black" d="M79.4,-229.76C83.94,-220.93 89.65,-209.83 94.7,-200.01"/>
<ellipse fill="black" stroke="black" cx="96.69" cy="-196.15" rx="4" ry="4"/>
</g>
<!-- O0 -->
<g id="node8" class="node">
<title>O0</title>
<polygon fill="none" stroke="blue" points="71.05,-350 41.02,-313.25 101.08,-313.25 71.05,-350"/>
<text text-anchor="middle" x="71.05" y="-320.45" font-family="Times,serif" font-size="14.00">z</text>
</g>
<!-- O0&#45;&gt;10 -->
<g id="edge9" class="edge">
<title>O0&#45;&gt;10</title>
<path fill="none" stroke="black" d="M71.05,-312.88C71.05,-300.26 71.05,-279.95 71.05,-265.42"/>
</g>
</g>
</svg>
